<svg width="28" height="28" viewBox="0 0 22 22" fill="none" xmlns="http://www.w3.org/2000/svg">
<g id="Icon/Solid/inbox-in">
<g id="Icon">
<path fill-rule="evenodd" clip-rule="evenodd" d="M5.49922 18.7002C4.28419 18.7002 3.29922 17.7152 3.29922 16.5002L3.29922 15.4002C3.29922 14.7927 3.79171 14.3002 4.39922 14.3002C5.00673 14.3002 5.49922 14.7927 5.49922 15.4002L5.49922 16.5002L16.4992 16.5002L16.4992 5.50019L5.49922 5.50019L5.49922 6.60019C5.49922 7.20771 5.00673 7.7002 4.39922 7.7002C3.79171 7.7002 3.29922 7.20771 3.29922 6.60019L3.29922 5.50019C3.29922 4.28517 4.28419 3.30019 5.49922 3.30019L16.4992 3.30019C17.7142 3.30019 18.6992 4.28517 18.6992 5.50019L18.6992 16.5002C18.6992 17.7152 17.7142 18.7002 16.4992 18.7002L5.49922 18.7002Z" fill="#707070"/>
<path d="M13.1992 17.6002L13.1992 14.3002L15.3992 13.2002L15.3992 8.80019L13.1992 7.7002L13.1992 4.4002L17.5992 4.4002L17.5992 17.6002L13.1992 17.6002Z" fill="#707070"/>
<path d="M8.0214 13.978C7.59182 13.5484 7.59182 12.852 8.0214 12.4224L8.34358 12.1002L3.29922 12.1002C2.69171 12.1002 2.19922 11.6077 2.19922 11.0002C2.19922 10.3927 2.69171 9.9002 3.29922 9.9002L8.34358 9.9002L8.0214 9.57801C7.59182 9.14843 7.59182 8.45195 8.0214 8.02238C8.45098 7.5928 9.14746 7.5928 9.57704 8.02238L11.777 10.2224C11.9833 10.4287 12.0992 10.7085 12.0992 11.0002C12.0992 11.2919 11.9833 11.5717 11.777 11.778L9.57704 13.978C9.14746 14.4076 8.45098 14.4076 8.0214 13.978Z" fill="#707070"/>
</g>
</g>
</svg>
