<svg xmlns="http://www.w3.org/2000/svg" width="178" height="72" viewBox="0 0 178 72" fill="none">
  <g clip-path="url(#clip0_588_31257)">
    <path d="M116.148 71.6442C106.389 71.6442 98.1867 68.3505 91.5399 61.7631C84.818 55.1111 81.457 46.6551 81.457 36.3951C81.457 25.9455 84.8397 17.3645 91.6052 10.6521C98.4536 3.87523 106.696 0.48678 116.332 0.48678C122.326 0.431399 128.239 1.90526 133.532 4.77425C137.661 6.8677 141.289 9.85874 144.161 13.5366C144.376 13.8178 144.535 14.14 144.627 14.4845C144.718 14.8289 144.742 15.1886 144.695 15.5424C144.649 15.8961 144.534 16.2369 144.356 16.5446C144.179 16.8524 143.943 17.1208 143.662 17.3343L143.526 17.4371C142.982 17.8491 142.302 18.0301 141.63 17.9421C140.957 17.8542 140.345 17.5041 139.92 16.9654C137.432 13.8732 134.334 11.3492 130.828 9.55758C126.351 7.18721 121.376 5.96273 116.332 5.98973C108.028 5.98973 101.075 8.85006 95.4722 14.5707C89.9365 20.2148 87.1687 27.4573 87.1687 36.2983C87.1687 45.0063 89.9128 52.1883 95.4011 57.8445C100.937 63.4402 107.888 66.238 116.255 66.238C121.223 66.2625 126.127 65.0963 130.573 62.8334C134.189 61.0282 137.425 58.52 140.098 55.4498C140.546 54.9327 141.174 54.6129 141.848 54.5577C142.523 54.5024 143.192 54.716 143.716 55.1535C143.987 55.3809 144.211 55.6613 144.374 55.9782C144.537 56.295 144.637 56.642 144.667 56.9986C144.696 57.3553 144.656 57.7144 144.548 58.0549C144.44 58.3954 144.266 58.7104 144.036 58.9814C140.967 62.608 137.213 65.5675 132.998 67.6833C127.766 70.338 121.992 71.6951 116.148 71.6442Z" fill="white"/>
    <path d="M116.256 42.3163C118.653 42.3163 120.597 40.3345 120.597 37.8898C120.597 35.445 118.653 33.4632 116.256 33.4632C113.858 33.4632 111.914 35.445 111.914 37.8898C111.914 40.3345 113.858 42.3163 116.256 42.3163Z" fill="white"/>
    <path d="M132.805 38.9143C133.523 38.9143 134.106 38.3316 134.106 37.6127C134.106 36.8938 133.523 36.311 132.805 36.311V38.9143ZM116.018 38.9143H132.805V36.311H116.018V38.9143Z" fill="white"/>
    <path d="M99.873 21.1442L116.889 38.4936" stroke="white" stroke-width="2.60332" stroke-miterlimit="10" stroke-linecap="round"/>
  </g>
  <defs>
    <clipPath id="clip0_588_31257">
      <rect width="177.026" height="71.1574" fill="white" transform="translate(0.0351562 0.487793)"/>
    </clipPath>
  </defs>
</svg>